<?xml version="1.0" encoding="utf-8" standalone="no"?>
<!DOCTYPE svg PUBLIC "-//W3C//DTD SVG 1.1//EN"
  "http://www.w3.org/Graphics/SVG/1.1/DTD/svg11.dtd">
<svg xmlns:xlink="http://www.w3.org/1999/xlink" width="712.8pt" height="856.8pt" viewBox="0 0 712.8 856.8" xmlns="http://www.w3.org/2000/svg" version="1.1">
 <metadata>
  <rdf:RDF xmlns:dc="http://purl.org/dc/elements/1.1/" xmlns:cc="http://creativecommons.org/ns#" xmlns:rdf="http://www.w3.org/1999/02/22-rdf-syntax-ns#">
   <cc:Work>
    <dc:type rdf:resource="http://purl.org/dc/dcmitype/StillImage"/>
    <dc:date>2026-04-30T19:34:15.684559</dc:date>
    <dc:format>image/svg+xml</dc:format>
    <dc:creator>
     <cc:Agent>
      <dc:title>Matplotlib v3.9.2, https://matplotlib.org/</dc:title>
     </cc:Agent>
    </dc:creator>
   </cc:Work>
  </rdf:RDF>
 </metadata>
 <defs>
  <style type="text/css">*{stroke-linejoin: round; stroke-linecap: butt}</style>
 </defs>
 <g id="figure_1">
  <g id="patch_1">
   <path d="M 0 856.8 
L 712.8 856.8 
L 712.8 0 
L 0 0 
L 0 856.8 
z
" style="fill: none"/>
  </g>
  <g id="axes_1">
   <g id="patch_2">
    <path d="M 42.12 504.981818 
L 146.88 504.981818 
L 146.88 428.4 
L 42.12 428.4 
z
" clip-path="url(#pcfe0c45d88)" style="fill: #eeeeee; stroke: #000000; stroke-width: 2; stroke-linejoin: miter"/>
   </g>
   <g id="patch_3">
    <path d="M 251.64 581.563636 
L 461.16 581.563636 
L 461.16 351.818182 
L 251.64 351.818182 
L 251.64 581.563636 
z
" clip-path="url(#pcfe0c45d88)" style="fill: none; stroke-dasharray: 7.4,3.2; stroke-dashoffset: 0; stroke: #808080; stroke-width: 2; stroke-linejoin: miter"/>
   </g>
   <g id="patch_4">
    <path d="M 258.624 527.956364 
L 286.56 527.956364 
L 286.56 405.425455 
L 258.624 405.425455 
z
" clip-path="url(#pcfe0c45d88)" style="fill: #1f77b4; opacity: 0.5; stroke: #000000; stroke-width: 2; stroke-linejoin: miter"/>
   </g>
   <g id="patch_5">
    <path d="M 300.528 573.905455 
L 412.272 573.905455 
L 412.272 543.272727 
L 300.528 543.272727 
z
" clip-path="url(#pcfe0c45d88)" style="fill: #2ca02c; opacity: 0.5; stroke: #000000; stroke-width: 2; stroke-linejoin: miter"/>
   </g>
   <g id="patch_6">
    <path d="M 328.464 328.843636 
L 384.336 328.843636 
L 384.336 236.945455 
L 328.464 236.945455 
z
" clip-path="url(#pcfe0c45d88)" style="fill: #eeeeee; stroke: #000000; stroke-width: 2; stroke-linejoin: miter"/>
   </g>
   <g id="patch_7">
    <path d="M 286.56 727.069091 
L 426.24 727.069091 
L 426.24 704.094545 
L 286.56 704.094545 
z
" clip-path="url(#pcfe0c45d88)" style="fill: #555555; stroke: #000000; stroke-width: 2; stroke-linejoin: miter"/>
   </g>
   <g id="patch_8">
    <path d="M 148.882188 465.690909 
Q 239.657894 465.690909 330.4336 465.690909 
L 330.4336 462.690909 
Q 335.433096 464.690909 340.432592 466.690909 
Q 335.433096 468.690909 330.4336 470.690909 
L 330.4336 467.690909 
Q 239.657894 467.690909 148.882188 467.690909 
L 148.882188 465.690909 
z
" clip-path="url(#pcfe0c45d88)" style="fill: #1f77b4; opacity: 0.8; stroke: #1f77b4; stroke-linecap: round"/>
   </g>
   <g id="patch_9">
    <path d="M 341.432 449.373177 
Q 341.432 330.014359 341.432 210.655541 
L 338.432 210.655541 
Q 340.432 205.655454 342.432 200.655367 
Q 344.432 205.655454 346.432 210.655541 
L 343.432 210.655541 
Q 343.432 330.014359 343.432 449.373177 
L 341.432 449.373177 
z
" clip-path="url(#pcfe0c45d88)" style="fill: #1f77b4; opacity: 0.8; stroke: #1f77b4; stroke-linecap: round"/>
   </g>
   <g id="patch_10">
    <path d="M 371.368 200.656381 
Q 371.368 335.335773 371.368 470.015166 
L 374.368 470.015166 
Q 372.368 475.01308 370.368 480.010993 
Q 368.368 475.01308 366.368 470.015166 
L 369.368 470.015166 
Q 369.368 335.335773 369.368 200.656381 
L 371.368 200.656381 
z
" clip-path="url(#pcfe0c45d88)" style="fill: #2ca02c; opacity: 0.8; stroke: #2ca02c; stroke-linecap: round"/>
   </g>
   <g id="patch_11">
    <path d="M 371.368 499.320798 
Q 371.368 595.704725 371.368 692.088652 
L 374.368 692.088652 
Q 372.368 697.090165 370.368 702.091677 
Q 368.368 697.090165 366.368 692.088652 
L 369.368 692.088652 
Q 369.368 595.704725 369.368 499.320798 
L 371.368 499.320798 
z
" clip-path="url(#pcfe0c45d88)" style="fill: #2ca02c; opacity: 0.8; stroke: #2ca02c; stroke-linecap: round"/>
   </g>
   <g id="line2d_1">
    <path d="M 300.528 527.956364 
L 412.272 405.425455 
" clip-path="url(#pcfe0c45d88)" style="fill: none; stroke: #c0c0c0; stroke-width: 4; stroke-linecap: round"/>
   </g>
   <g id="line2d_2">
    <path d="M 300.528 527.956364 
L 412.272 405.425455 
" clip-path="url(#pcfe0c45d88)" style="fill: none; stroke-dasharray: 3.7,1.6; stroke-dashoffset: 0; stroke: #000000"/>
   </g>
   <g id="line2d_3">
    <path d="M 251.64 198.654545 
L 461.16 198.654545 
" clip-path="url(#pcfe0c45d88)" style="fill: none; stroke: #000000; stroke-width: 2; stroke-linecap: square"/>
   </g>
   <g id="text_1">
    <!-- Light Source -->
    <g transform="translate(49.104 463.236597) scale(0.12 -0.12)">
     <defs>
      <path id="DejaVuSans-Bold-4c" d="M 588 4666 
L 1791 4666 
L 1791 909 
L 3903 909 
L 3903 0 
L 588 0 
L 588 4666 
z
" transform="scale(0.015625)"/>
      <path id="DejaVuSans-Bold-69" d="M 538 3500 
L 1656 3500 
L 1656 0 
L 538 0 
L 538 3500 
z
M 538 4863 
L 1656 4863 
L 1656 3950 
L 538 3950 
L 538 4863 
z
" transform="scale(0.015625)"/>
      <path id="DejaVuSans-Bold-67" d="M 2919 594 
Q 2688 288 2409 144 
Q 2131 0 1766 0 
Q 1125 0 706 504 
Q 288 1009 288 1791 
Q 288 2575 706 3076 
Q 1125 3578 1766 3578 
Q 2131 3578 2409 3434 
Q 2688 3291 2919 2981 
L 2919 3500 
L 4044 3500 
L 4044 353 
Q 4044 -491 3511 -936 
Q 2978 -1381 1966 -1381 
Q 1638 -1381 1331 -1331 
Q 1025 -1281 716 -1178 
L 716 -306 
Q 1009 -475 1290 -558 
Q 1572 -641 1856 -641 
Q 2406 -641 2662 -400 
Q 2919 -159 2919 353 
L 2919 594 
z
M 2181 2772 
Q 1834 2772 1640 2515 
Q 1447 2259 1447 1791 
Q 1447 1309 1634 1061 
Q 1822 813 2181 813 
Q 2531 813 2725 1069 
Q 2919 1325 2919 1791 
Q 2919 2259 2725 2515 
Q 2531 2772 2181 2772 
z
" transform="scale(0.015625)"/>
      <path id="DejaVuSans-Bold-68" d="M 4056 2131 
L 4056 0 
L 2931 0 
L 2931 347 
L 2931 1625 
Q 2931 2084 2911 2256 
Q 2891 2428 2841 2509 
Q 2775 2619 2662 2680 
Q 2550 2741 2406 2741 
Q 2056 2741 1856 2470 
Q 1656 2200 1656 1722 
L 1656 0 
L 538 0 
L 538 4863 
L 1656 4863 
L 1656 2988 
Q 1909 3294 2193 3439 
Q 2478 3584 2822 3584 
Q 3428 3584 3742 3212 
Q 4056 2841 4056 2131 
z
" transform="scale(0.015625)"/>
      <path id="DejaVuSans-Bold-74" d="M 1759 4494 
L 1759 3500 
L 2913 3500 
L 2913 2700 
L 1759 2700 
L 1759 1216 
Q 1759 972 1856 886 
Q 1953 800 2241 800 
L 2816 800 
L 2816 0 
L 1856 0 
Q 1194 0 917 276 
Q 641 553 641 1216 
L 641 2700 
L 84 2700 
L 84 3500 
L 641 3500 
L 641 4494 
L 1759 4494 
z
" transform="scale(0.015625)"/>
      <path id="DejaVuSans-Bold-20" transform="scale(0.015625)"/>
      <path id="DejaVuSans-Bold-53" d="M 3834 4519 
L 3834 3531 
Q 3450 3703 3084 3790 
Q 2719 3878 2394 3878 
Q 1963 3878 1756 3759 
Q 1550 3641 1550 3391 
Q 1550 3203 1689 3098 
Q 1828 2994 2194 2919 
L 2706 2816 
Q 3484 2659 3812 2340 
Q 4141 2022 4141 1434 
Q 4141 663 3683 286 
Q 3225 -91 2284 -91 
Q 1841 -91 1394 -6 
Q 947 78 500 244 
L 500 1259 
Q 947 1022 1364 901 
Q 1781 781 2169 781 
Q 2563 781 2772 912 
Q 2981 1044 2981 1288 
Q 2981 1506 2839 1625 
Q 2697 1744 2272 1838 
L 1806 1941 
Q 1106 2091 782 2419 
Q 459 2747 459 3303 
Q 459 4000 909 4375 
Q 1359 4750 2203 4750 
Q 2588 4750 2994 4692 
Q 3400 4634 3834 4519 
z
" transform="scale(0.015625)"/>
      <path id="DejaVuSans-Bold-6f" d="M 2203 2784 
Q 1831 2784 1636 2517 
Q 1441 2250 1441 1747 
Q 1441 1244 1636 976 
Q 1831 709 2203 709 
Q 2569 709 2762 976 
Q 2956 1244 2956 1747 
Q 2956 2250 2762 2517 
Q 2569 2784 2203 2784 
z
M 2203 3584 
Q 3106 3584 3614 3096 
Q 4122 2609 4122 1747 
Q 4122 884 3614 396 
Q 3106 -91 2203 -91 
Q 1297 -91 786 396 
Q 275 884 275 1747 
Q 275 2609 786 3096 
Q 1297 3584 2203 3584 
z
" transform="scale(0.015625)"/>
      <path id="DejaVuSans-Bold-75" d="M 500 1363 
L 500 3500 
L 1625 3500 
L 1625 3150 
Q 1625 2866 1622 2436 
Q 1619 2006 1619 1863 
Q 1619 1441 1641 1255 
Q 1663 1069 1716 984 
Q 1784 875 1895 815 
Q 2006 756 2150 756 
Q 2500 756 2700 1025 
Q 2900 1294 2900 1772 
L 2900 3500 
L 4019 3500 
L 4019 0 
L 2900 0 
L 2900 506 
Q 2647 200 2364 54 
Q 2081 -91 1741 -91 
Q 1134 -91 817 281 
Q 500 653 500 1363 
z
" transform="scale(0.015625)"/>
      <path id="DejaVuSans-Bold-72" d="M 3138 2547 
Q 2991 2616 2845 2648 
Q 2700 2681 2553 2681 
Q 2122 2681 1889 2404 
Q 1656 2128 1656 1613 
L 1656 0 
L 538 0 
L 538 3500 
L 1656 3500 
L 1656 2925 
Q 1872 3269 2151 3426 
Q 2431 3584 2822 3584 
Q 2878 3584 2943 3579 
Q 3009 3575 3134 3559 
L 3138 2547 
z
" transform="scale(0.015625)"/>
      <path id="DejaVuSans-Bold-63" d="M 3366 3391 
L 3366 2478 
Q 3138 2634 2908 2709 
Q 2678 2784 2431 2784 
Q 1963 2784 1702 2511 
Q 1441 2238 1441 1747 
Q 1441 1256 1702 982 
Q 1963 709 2431 709 
Q 2694 709 2930 787 
Q 3166 866 3366 1019 
L 3366 103 
Q 3103 6 2833 -42 
Q 2563 -91 2291 -91 
Q 1344 -91 809 395 
Q 275 881 275 1747 
Q 275 2613 809 3098 
Q 1344 3584 2291 3584 
Q 2566 3584 2833 3536 
Q 3100 3488 3366 3391 
z
" transform="scale(0.015625)"/>
      <path id="DejaVuSans-Bold-65" d="M 4031 1759 
L 4031 1441 
L 1416 1441 
Q 1456 1047 1700 850 
Q 1944 653 2381 653 
Q 2734 653 3104 758 
Q 3475 863 3866 1075 
L 3866 213 
Q 3469 63 3072 -14 
Q 2675 -91 2278 -91 
Q 1328 -91 801 392 
Q 275 875 275 1747 
Q 275 2603 792 3093 
Q 1309 3584 2216 3584 
Q 3041 3584 3536 3087 
Q 4031 2591 4031 1759 
z
M 2881 2131 
Q 2881 2450 2695 2645 
Q 2509 2841 2209 2841 
Q 1884 2841 1681 2658 
Q 1478 2475 1428 2131 
L 2881 2131 
z
" transform="scale(0.015625)"/>
     </defs>
     <use xlink:href="#DejaVuSans-Bold-4c"/>
     <use xlink:href="#DejaVuSans-Bold-69" x="63.720703"/>
     <use xlink:href="#DejaVuSans-Bold-67" x="97.998047"/>
     <use xlink:href="#DejaVuSans-Bold-68" x="169.580078"/>
     <use xlink:href="#DejaVuSans-Bold-74" x="240.771484"/>
     <use xlink:href="#DejaVuSans-Bold-20" x="288.574219"/>
     <use xlink:href="#DejaVuSans-Bold-53" x="323.388672"/>
     <use xlink:href="#DejaVuSans-Bold-6f" x="395.410156"/>
     <use xlink:href="#DejaVuSans-Bold-75" x="464.111328"/>
     <use xlink:href="#DejaVuSans-Bold-72" x="535.302734"/>
     <use xlink:href="#DejaVuSans-Bold-63" x="584.619141"/>
     <use xlink:href="#DejaVuSans-Bold-65" x="643.896484"/>
    </g>
    <!-- (LED/Laser) -->
    <g transform="translate(49.104 476.767722) scale(0.12 -0.12)">
     <defs>
      <path id="DejaVuSans-Bold-28" d="M 2413 -844 
L 1484 -844 
Q 1006 -72 778 623 
Q 550 1319 550 2003 
Q 550 2688 779 3389 
Q 1009 4091 1484 4856 
L 2413 4856 
Q 2013 4116 1813 3408 
Q 1613 2700 1613 2009 
Q 1613 1319 1811 609 
Q 2009 -100 2413 -844 
z
" transform="scale(0.015625)"/>
      <path id="DejaVuSans-Bold-45" d="M 588 4666 
L 3834 4666 
L 3834 3756 
L 1791 3756 
L 1791 2888 
L 3713 2888 
L 3713 1978 
L 1791 1978 
L 1791 909 
L 3903 909 
L 3903 0 
L 588 0 
L 588 4666 
z
" transform="scale(0.015625)"/>
      <path id="DejaVuSans-Bold-44" d="M 1791 3756 
L 1791 909 
L 2222 909 
Q 2959 909 3348 1275 
Q 3738 1641 3738 2338 
Q 3738 3031 3350 3393 
Q 2963 3756 2222 3756 
L 1791 3756 
z
M 588 4666 
L 1856 4666 
Q 2919 4666 3439 4514 
Q 3959 4363 4331 4000 
Q 4659 3684 4818 3271 
Q 4978 2859 4978 2338 
Q 4978 1809 4818 1395 
Q 4659 981 4331 666 
Q 3956 303 3431 151 
Q 2906 0 1856 0 
L 588 0 
L 588 4666 
z
" transform="scale(0.015625)"/>
      <path id="DejaVuSans-Bold-2f" d="M 1644 4666 
L 2338 4666 
L 691 -594 
L 0 -594 
L 1644 4666 
z
" transform="scale(0.015625)"/>
      <path id="DejaVuSans-Bold-61" d="M 2106 1575 
Q 1756 1575 1579 1456 
Q 1403 1338 1403 1106 
Q 1403 894 1545 773 
Q 1688 653 1941 653 
Q 2256 653 2472 879 
Q 2688 1106 2688 1447 
L 2688 1575 
L 2106 1575 
z
M 3816 1997 
L 3816 0 
L 2688 0 
L 2688 519 
Q 2463 200 2181 54 
Q 1900 -91 1497 -91 
Q 953 -91 614 226 
Q 275 544 275 1050 
Q 275 1666 698 1953 
Q 1122 2241 2028 2241 
L 2688 2241 
L 2688 2328 
Q 2688 2594 2478 2717 
Q 2269 2841 1825 2841 
Q 1466 2841 1156 2769 
Q 847 2697 581 2553 
L 581 3406 
Q 941 3494 1303 3539 
Q 1666 3584 2028 3584 
Q 2975 3584 3395 3211 
Q 3816 2838 3816 1997 
z
" transform="scale(0.015625)"/>
      <path id="DejaVuSans-Bold-73" d="M 3272 3391 
L 3272 2541 
Q 2913 2691 2578 2766 
Q 2244 2841 1947 2841 
Q 1628 2841 1473 2761 
Q 1319 2681 1319 2516 
Q 1319 2381 1436 2309 
Q 1553 2238 1856 2203 
L 2053 2175 
Q 2913 2066 3209 1816 
Q 3506 1566 3506 1031 
Q 3506 472 3093 190 
Q 2681 -91 1863 -91 
Q 1516 -91 1145 -36 
Q 775 19 384 128 
L 384 978 
Q 719 816 1070 734 
Q 1422 653 1784 653 
Q 2113 653 2278 743 
Q 2444 834 2444 1013 
Q 2444 1163 2330 1236 
Q 2216 1309 1875 1350 
L 1678 1375 
Q 931 1469 631 1722 
Q 331 1975 331 2491 
Q 331 3047 712 3315 
Q 1094 3584 1881 3584 
Q 2191 3584 2531 3537 
Q 2872 3491 3272 3391 
z
" transform="scale(0.015625)"/>
      <path id="DejaVuSans-Bold-29" d="M 513 -844 
Q 913 -100 1113 609 
Q 1313 1319 1313 2009 
Q 1313 2700 1113 3408 
Q 913 4116 513 4856 
L 1441 4856 
Q 1916 4091 2145 3389 
Q 2375 2688 2375 2003 
Q 2375 1319 2147 623 
Q 1919 -72 1441 -844 
L 513 -844 
z
" transform="scale(0.015625)"/>
     </defs>
     <use xlink:href="#DejaVuSans-Bold-28"/>
     <use xlink:href="#DejaVuSans-Bold-4c" x="45.703125"/>
     <use xlink:href="#DejaVuSans-Bold-45" x="109.423828"/>
     <use xlink:href="#DejaVuSans-Bold-44" x="177.734375"/>
     <use xlink:href="#DejaVuSans-Bold-2f" x="260.742188"/>
     <use xlink:href="#DejaVuSans-Bold-4c" x="297.265625"/>
     <use xlink:href="#DejaVuSans-Bold-61" x="360.986328"/>
     <use xlink:href="#DejaVuSans-Bold-73" x="428.466797"/>
     <use xlink:href="#DejaVuSans-Bold-65" x="487.988281"/>
     <use xlink:href="#DejaVuSans-Bold-72" x="555.810547"/>
     <use xlink:href="#DejaVuSans-Bold-29" x="605.126953"/>
    </g>
   </g>
   <g id="text_2">
    <!-- Filter Cube -->
    <g style="fill: #808080" transform="translate(482.112 374.792727) scale(0.12 -0.12)">
     <defs>
      <path id="DejaVuSans-Bold-46" d="M 588 4666 
L 3834 4666 
L 3834 3756 
L 1791 3756 
L 1791 2888 
L 3713 2888 
L 3713 1978 
L 1791 1978 
L 1791 0 
L 588 0 
L 588 4666 
z
" transform="scale(0.015625)"/>
      <path id="DejaVuSans-Bold-6c" d="M 538 4863 
L 1656 4863 
L 1656 0 
L 538 0 
L 538 4863 
z
" transform="scale(0.015625)"/>
      <path id="DejaVuSans-Bold-43" d="M 4288 256 
Q 3956 84 3597 -3 
Q 3238 -91 2847 -91 
Q 1681 -91 1000 561 
Q 319 1213 319 2328 
Q 319 3447 1000 4098 
Q 1681 4750 2847 4750 
Q 3238 4750 3597 4662 
Q 3956 4575 4288 4403 
L 4288 3438 
Q 3953 3666 3628 3772 
Q 3303 3878 2944 3878 
Q 2300 3878 1931 3465 
Q 1563 3053 1563 2328 
Q 1563 1606 1931 1193 
Q 2300 781 2944 781 
Q 3303 781 3628 887 
Q 3953 994 4288 1222 
L 4288 256 
z
" transform="scale(0.015625)"/>
      <path id="DejaVuSans-Bold-62" d="M 2400 722 
Q 2759 722 2948 984 
Q 3138 1247 3138 1747 
Q 3138 2247 2948 2509 
Q 2759 2772 2400 2772 
Q 2041 2772 1848 2508 
Q 1656 2244 1656 1747 
Q 1656 1250 1848 986 
Q 2041 722 2400 722 
z
M 1656 2988 
Q 1888 3294 2169 3439 
Q 2450 3584 2816 3584 
Q 3463 3584 3878 3070 
Q 4294 2556 4294 1747 
Q 4294 938 3878 423 
Q 3463 -91 2816 -91 
Q 2450 -91 2169 54 
Q 1888 200 1656 506 
L 1656 0 
L 538 0 
L 538 4863 
L 1656 4863 
L 1656 2988 
z
" transform="scale(0.015625)"/>
     </defs>
     <use xlink:href="#DejaVuSans-Bold-46"/>
     <use xlink:href="#DejaVuSans-Bold-69" x="68.310547"/>
     <use xlink:href="#DejaVuSans-Bold-6c" x="102.587891"/>
     <use xlink:href="#DejaVuSans-Bold-74" x="136.865234"/>
     <use xlink:href="#DejaVuSans-Bold-65" x="184.667969"/>
     <use xlink:href="#DejaVuSans-Bold-72" x="252.490234"/>
     <use xlink:href="#DejaVuSans-Bold-20" x="301.806641"/>
     <use xlink:href="#DejaVuSans-Bold-43" x="336.621094"/>
     <use xlink:href="#DejaVuSans-Bold-75" x="410.009766"/>
     <use xlink:href="#DejaVuSans-Bold-62" x="481.201172"/>
     <use xlink:href="#DejaVuSans-Bold-65" x="552.783203"/>
    </g>
   </g>
   <g id="text_3">
    <!-- Excitation -->
    <g style="fill: #1f77b4" transform="translate(160.848 501.574381) scale(0.12 -0.12)">
     <defs>
      <path id="DejaVuSans-Bold-78" d="M 1422 1791 
L 159 3500 
L 1344 3500 
L 2059 2463 
L 2784 3500 
L 3969 3500 
L 2706 1797 
L 4031 0 
L 2847 0 
L 2059 1106 
L 1281 0 
L 97 0 
L 1422 1791 
z
" transform="scale(0.015625)"/>
      <path id="DejaVuSans-Bold-6e" d="M 4056 2131 
L 4056 0 
L 2931 0 
L 2931 347 
L 2931 1631 
Q 2931 2084 2911 2256 
Q 2891 2428 2841 2509 
Q 2775 2619 2662 2680 
Q 2550 2741 2406 2741 
Q 2056 2741 1856 2470 
Q 1656 2200 1656 1722 
L 1656 0 
L 538 0 
L 538 3500 
L 1656 3500 
L 1656 2988 
Q 1909 3294 2193 3439 
Q 2478 3584 2822 3584 
Q 3428 3584 3742 3212 
Q 4056 2841 4056 2131 
z
" transform="scale(0.015625)"/>
     </defs>
     <use xlink:href="#DejaVuSans-Bold-45"/>
     <use xlink:href="#DejaVuSans-Bold-78" x="68.310547"/>
     <use xlink:href="#DejaVuSans-Bold-63" x="132.8125"/>
     <use xlink:href="#DejaVuSans-Bold-69" x="192.089844"/>
     <use xlink:href="#DejaVuSans-Bold-74" x="226.367188"/>
     <use xlink:href="#DejaVuSans-Bold-61" x="274.169922"/>
     <use xlink:href="#DejaVuSans-Bold-74" x="341.650391"/>
     <use xlink:href="#DejaVuSans-Bold-69" x="389.453125"/>
     <use xlink:href="#DejaVuSans-Bold-6f" x="423.730469"/>
     <use xlink:href="#DejaVuSans-Bold-6e" x="492.431641"/>
    </g>
    <!-- Filter -->
    <g style="fill: #1f77b4" transform="translate(160.848 515.011756) scale(0.12 -0.12)">
     <use xlink:href="#DejaVuSans-Bold-46"/>
     <use xlink:href="#DejaVuSans-Bold-69" x="68.310547"/>
     <use xlink:href="#DejaVuSans-Bold-6c" x="102.587891"/>
     <use xlink:href="#DejaVuSans-Bold-74" x="136.865234"/>
     <use xlink:href="#DejaVuSans-Bold-65" x="184.667969"/>
     <use xlink:href="#DejaVuSans-Bold-72" x="252.490234"/>
    </g>
   </g>
   <g id="text_4">
    <!-- Dichroic -->
    <g transform="translate(482.112 463.283472) scale(0.12 -0.12)">
     <use xlink:href="#DejaVuSans-Bold-44"/>
     <use xlink:href="#DejaVuSans-Bold-69" x="83.007812"/>
     <use xlink:href="#DejaVuSans-Bold-63" x="117.285156"/>
     <use xlink:href="#DejaVuSans-Bold-68" x="176.5625"/>
     <use xlink:href="#DejaVuSans-Bold-72" x="247.753906"/>
     <use xlink:href="#DejaVuSans-Bold-6f" x="297.070312"/>
     <use xlink:href="#DejaVuSans-Bold-69" x="365.771484"/>
     <use xlink:href="#DejaVuSans-Bold-63" x="400.048828"/>
    </g>
    <!-- Mirror -->
    <g transform="translate(482.112 476.720847) scale(0.12 -0.12)">
     <defs>
      <path id="DejaVuSans-Bold-4d" d="M 588 4666 
L 2119 4666 
L 3181 2169 
L 4250 4666 
L 5778 4666 
L 5778 0 
L 4641 0 
L 4641 3413 
L 3566 897 
L 2803 897 
L 1728 3413 
L 1728 0 
L 588 0 
L 588 4666 
z
" transform="scale(0.015625)"/>
     </defs>
     <use xlink:href="#DejaVuSans-Bold-4d"/>
     <use xlink:href="#DejaVuSans-Bold-69" x="99.511719"/>
     <use xlink:href="#DejaVuSans-Bold-72" x="133.789062"/>
     <use xlink:href="#DejaVuSans-Bold-72" x="183.105469"/>
     <use xlink:href="#DejaVuSans-Bold-6f" x="232.421875"/>
     <use xlink:href="#DejaVuSans-Bold-72" x="301.123047"/>
    </g>
   </g>
   <g id="text_5">
    <!-- Emission -->
    <g style="fill: #2ca02c" transform="translate(482.112 555.181653) scale(0.12 -0.12)">
     <defs>
      <path id="DejaVuSans-Bold-6d" d="M 3781 2919 
Q 3994 3244 4286 3414 
Q 4578 3584 4928 3584 
Q 5531 3584 5847 3212 
Q 6163 2841 6163 2131 
L 6163 0 
L 5038 0 
L 5038 1825 
Q 5041 1866 5042 1909 
Q 5044 1953 5044 2034 
Q 5044 2406 4934 2573 
Q 4825 2741 4581 2741 
Q 4263 2741 4089 2478 
Q 3916 2216 3909 1719 
L 3909 0 
L 2784 0 
L 2784 1825 
Q 2784 2406 2684 2573 
Q 2584 2741 2328 2741 
Q 2006 2741 1831 2477 
Q 1656 2213 1656 1722 
L 1656 0 
L 531 0 
L 531 3500 
L 1656 3500 
L 1656 2988 
Q 1863 3284 2130 3434 
Q 2397 3584 2719 3584 
Q 3081 3584 3359 3409 
Q 3638 3234 3781 2919 
z
" transform="scale(0.015625)"/>
     </defs>
     <use xlink:href="#DejaVuSans-Bold-45"/>
     <use xlink:href="#DejaVuSans-Bold-6d" x="68.310547"/>
     <use xlink:href="#DejaVuSans-Bold-69" x="172.509766"/>
     <use xlink:href="#DejaVuSans-Bold-73" x="206.787109"/>
     <use xlink:href="#DejaVuSans-Bold-73" x="266.308594"/>
     <use xlink:href="#DejaVuSans-Bold-69" x="325.830078"/>
     <use xlink:href="#DejaVuSans-Bold-6f" x="360.107422"/>
     <use xlink:href="#DejaVuSans-Bold-6e" x="428.808594"/>
    </g>
    <!-- Filter -->
    <g style="fill: #2ca02c" transform="translate(482.112 568.619028) scale(0.12 -0.12)">
     <use xlink:href="#DejaVuSans-Bold-46"/>
     <use xlink:href="#DejaVuSans-Bold-69" x="68.310547"/>
     <use xlink:href="#DejaVuSans-Bold-6c" x="102.587891"/>
     <use xlink:href="#DejaVuSans-Bold-74" x="136.865234"/>
     <use xlink:href="#DejaVuSans-Bold-65" x="184.667969"/>
     <use xlink:href="#DejaVuSans-Bold-72" x="252.490234"/>
    </g>
   </g>
   <g id="text_6">
    <!-- Objective -->
    <g transform="translate(482.112 279.440233) scale(0.12 -0.12)">
     <defs>
      <path id="DejaVuSans-Bold-4f" d="M 2719 3878 
Q 2169 3878 1866 3472 
Q 1563 3066 1563 2328 
Q 1563 1594 1866 1187 
Q 2169 781 2719 781 
Q 3272 781 3575 1187 
Q 3878 1594 3878 2328 
Q 3878 3066 3575 3472 
Q 3272 3878 2719 3878 
z
M 2719 4750 
Q 3844 4750 4481 4106 
Q 5119 3463 5119 2328 
Q 5119 1197 4481 553 
Q 3844 -91 2719 -91 
Q 1597 -91 958 553 
Q 319 1197 319 2328 
Q 319 3463 958 4106 
Q 1597 4750 2719 4750 
z
" transform="scale(0.015625)"/>
      <path id="DejaVuSans-Bold-6a" d="M 538 3500 
L 1656 3500 
L 1656 63 
Q 1656 -641 1318 -1011 
Q 981 -1381 341 -1381 
L -213 -1381 
L -213 -647 
L -19 -647 
Q 300 -647 419 -503 
Q 538 -359 538 63 
L 538 3500 
z
M 538 4863 
L 1656 4863 
L 1656 3950 
L 538 3950 
L 538 4863 
z
" transform="scale(0.015625)"/>
      <path id="DejaVuSans-Bold-76" d="M 97 3500 
L 1216 3500 
L 2088 1081 
L 2956 3500 
L 4078 3500 
L 2700 0 
L 1472 0 
L 97 3500 
z
" transform="scale(0.015625)"/>
     </defs>
     <use xlink:href="#DejaVuSans-Bold-4f"/>
     <use xlink:href="#DejaVuSans-Bold-62" x="85.009766"/>
     <use xlink:href="#DejaVuSans-Bold-6a" x="156.591797"/>
     <use xlink:href="#DejaVuSans-Bold-65" x="190.869141"/>
     <use xlink:href="#DejaVuSans-Bold-63" x="258.691406"/>
     <use xlink:href="#DejaVuSans-Bold-74" x="317.96875"/>
     <use xlink:href="#DejaVuSans-Bold-69" x="365.771484"/>
     <use xlink:href="#DejaVuSans-Bold-76" x="400.048828"/>
     <use xlink:href="#DejaVuSans-Bold-65" x="465.234375"/>
    </g>
    <!-- Lens -->
    <g transform="translate(482.112 292.971358) scale(0.12 -0.12)">
     <use xlink:href="#DejaVuSans-Bold-4c"/>
     <use xlink:href="#DejaVuSans-Bold-65" x="63.720703"/>
     <use xlink:href="#DejaVuSans-Bold-6e" x="131.542969"/>
     <use xlink:href="#DejaVuSans-Bold-73" x="202.734375"/>
    </g>
   </g>
   <g id="text_7">
    <!-- Sample -->
    <g transform="translate(482.112 201.965795) scale(0.12 -0.12)">
     <defs>
      <path id="DejaVuSans-Bold-70" d="M 1656 506 
L 1656 -1331 
L 538 -1331 
L 538 3500 
L 1656 3500 
L 1656 2988 
Q 1888 3294 2169 3439 
Q 2450 3584 2816 3584 
Q 3463 3584 3878 3070 
Q 4294 2556 4294 1747 
Q 4294 938 3878 423 
Q 3463 -91 2816 -91 
Q 2450 -91 2169 54 
Q 1888 200 1656 506 
z
M 2400 2772 
Q 2041 2772 1848 2508 
Q 1656 2244 1656 1747 
Q 1656 1250 1848 986 
Q 2041 722 2400 722 
Q 2759 722 2948 984 
Q 3138 1247 3138 1747 
Q 3138 2247 2948 2509 
Q 2759 2772 2400 2772 
z
" transform="scale(0.015625)"/>
     </defs>
     <use xlink:href="#DejaVuSans-Bold-53"/>
     <use xlink:href="#DejaVuSans-Bold-61" x="72.021484"/>
     <use xlink:href="#DejaVuSans-Bold-6d" x="139.501953"/>
     <use xlink:href="#DejaVuSans-Bold-70" x="243.701172"/>
     <use xlink:href="#DejaVuSans-Bold-6c" x="315.283203"/>
     <use xlink:href="#DejaVuSans-Bold-65" x="349.560547"/>
    </g>
   </g>
   <g id="text_8">
    <!-- Camera -->
    <g transform="translate(482.112 712.174381) scale(0.12 -0.12)">
     <use xlink:href="#DejaVuSans-Bold-43"/>
     <use xlink:href="#DejaVuSans-Bold-61" x="73.388672"/>
     <use xlink:href="#DejaVuSans-Bold-6d" x="140.869141"/>
     <use xlink:href="#DejaVuSans-Bold-65" x="245.068359"/>
     <use xlink:href="#DejaVuSans-Bold-72" x="312.890625"/>
     <use xlink:href="#DejaVuSans-Bold-61" x="362.207031"/>
    </g>
    <!-- Sensor -->
    <g transform="translate(482.112 725.611756) scale(0.12 -0.12)">
     <use xlink:href="#DejaVuSans-Bold-53"/>
     <use xlink:href="#DejaVuSans-Bold-65" x="72.021484"/>
     <use xlink:href="#DejaVuSans-Bold-6e" x="139.84375"/>
     <use xlink:href="#DejaVuSans-Bold-73" x="211.035156"/>
     <use xlink:href="#DejaVuSans-Bold-6f" x="270.556641"/>
     <use xlink:href="#DejaVuSans-Bold-72" x="339.257812"/>
    </g>
   </g>
  </g>
 </g>
 <defs>
  <clipPath id="pcfe0c45d88">
   <rect x="7.2" y="7.2" width="698.4" height="842.4"/>
  </clipPath>
 </defs>
</svg>
